<?xml version="1.0" encoding="UTF-8" standalone="no"?>
<!-- Created with Inkscape (http://www.inkscape.org/) -->

<svg
   xmlns:dc="http://purl.org/dc/elements/1.1/"
   xmlns:cc="http://creativecommons.org/ns#"
   xmlns:rdf="http://www.w3.org/1999/02/22-rdf-syntax-ns#"
   xmlns:svg="http://www.w3.org/2000/svg"
   xmlns="http://www.w3.org/2000/svg"
   xmlns:sodipodi="http://sodipodi.sourceforge.net/DTD/sodipodi-0.dtd"
   xmlns:inkscape="http://www.inkscape.org/namespaces/inkscape"
   width="91.470238mm"
   height="91.470238mm"
   viewBox="0 0 91.470238 91.470238"
   version="1.1"
   id="svg8"
   inkscape:version="0.92.1 r15371"
   sodipodi:docname="ASVirtualPC.svg">
  <defs
     id="defs2" />
  <sodipodi:namedview
     id="base"
     pagecolor="#ffffff"
     bordercolor="#666666"
     borderopacity="1.0"
     inkscape:pageopacity="0.0"
     inkscape:pageshadow="2"
     inkscape:zoom="1.01"
     inkscape:cx="144.70401"
     inkscape:cy="191.00851"
     inkscape:document-units="mm"
     inkscape:current-layer="layer3"
     showgrid="false"
     fit-margin-top="0"
     fit-margin-left="0"
     fit-margin-right="0"
     fit-margin-bottom="0"
     inkscape:window-width="1366"
     inkscape:window-height="706"
     inkscape:window-x="-8"
     inkscape:window-y="-8"
     inkscape:window-maximized="1" />
  <metadata
     id="metadata5">
    <rdf:RDF>
      <cc:Work
         rdf:about="">
        <dc:format>image/svg+xml</dc:format>
        <dc:type
           rdf:resource="http://purl.org/dc/dcmitype/StillImage" />
        <dc:title></dc:title>
      </cc:Work>
    </rdf:RDF>
  </metadata>
  <g
     inkscape:groupmode="layer"
     id="layer2"
     inkscape:label="back"
     transform="translate(-56.50071,-96.71666)" />
  <g
     inkscape:label="normal"
     inkscape:groupmode="layer"
     id="layer1"
     transform="translate(-56.50071,-96.71666)" />
  <g
     inkscape:groupmode="layer"
     id="layer3"
     inkscape:label="top"
     transform="translate(-56.50071,-96.71666)">
    <g
       id="g950">
      <path
         id="rect10"
         d="m 74.643566,96.71666 h 55.184524 c 10.05114,0 18.14286,8.09171 18.14286,18.14286 v 55.18452 c 0,10.05114 -8.09172,18.14286 -18.14286,18.14286 H 74.643566 c -10.051142,0 -18.142856,-8.09172 -18.142856,-18.14286 v -55.18452 c 0,-10.05115 8.091714,-18.14286 18.142856,-18.14286 z"
         style="fill:#000000;stroke-width:0.26458332;fill-opacity:1"
         inkscape:connector-curvature="0" />
      <g
         id="g936">
        <g
           id="g924">
          <path
             id="rect847"
             d="M 71.039693,101.73888 H 132.3392 c 3.70076,0 6.68007,2.97931 6.68007,6.68007 0,3.70076 -2.97931,6.68007 -6.68007,6.68007 H 71.039693 c -3.700761,0 -6.680074,-2.97931 -6.680074,-6.68007 0,-3.70076 2.979313,-6.68007 6.680074,-6.68007 z"
             style="fill:#ffffff;fill-opacity:1;stroke:none;stroke-width:0.37676668;stroke-miterlimit:4;stroke-dasharray:none;stroke-opacity:1" />
          <g
             id="g900">
            <path
               id="rect849"
               d="m 67.896131,124.27301 h 66.800739 c 0.94333,0 1.70277,0.75943 1.70277,1.70276 0,0.94334 -0.75944,1.70277 -1.70277,1.70277 H 67.896131 c -0.943331,0 -1.702764,-0.75943 -1.702764,-1.70277 0,-0.94333 0.759433,-1.70276 1.702764,-1.70276 z"
               style="fill:#ffffff;fill-opacity:1;stroke:none;stroke-width:0.37676668;stroke-miterlimit:4;stroke-dasharray:none;stroke-opacity:1" />
            <path
               id="rect849-6"
               d="m 67.896131,129.03546 h 66.800739 c 0.94333,0 1.70277,0.75943 1.70277,1.70277 0,0.94333 -0.75944,1.70276 -1.70277,1.70276 H 67.896131 c -0.943331,0 -1.702764,-0.75943 -1.702764,-1.70276 0,-0.94334 0.759433,-1.70277 1.702764,-1.70277 z"
               style="fill:#ffffff;fill-opacity:1;stroke:none;stroke-width:0.37676668;stroke-miterlimit:4;stroke-dasharray:none;stroke-opacity:1" />
            <path
               id="rect849-7"
               d="m 67.896131,134.02847 h 66.800739 c 0.94333,0 1.70277,0.75944 1.70277,1.70277 0,0.94333 -0.75944,1.70276 -1.70277,1.70276 H 67.896131 c -0.943331,0 -1.702764,-0.75943 -1.702764,-1.70276 0,-0.94333 0.759433,-1.70277 1.702764,-1.70277 z"
               style="fill:#ffffff;fill-opacity:1;stroke:none;stroke-width:0.37676668;stroke-miterlimit:4;stroke-dasharray:none;stroke-opacity:1" />
            <path
               id="rect849-6-2"
               d="m 67.896131,138.79094 h 66.800739 c 0.94333,0 1.70277,0.75943 1.70277,1.70276 0,0.94333 -0.75944,1.70277 -1.70277,1.70277 H 67.896131 c -0.943331,0 -1.702764,-0.75944 -1.702764,-1.70277 0,-0.94333 0.759433,-1.70276 1.702764,-1.70276 z"
               style="fill:#ffffff;fill-opacity:1;stroke:none;stroke-width:0.37676668;stroke-miterlimit:4;stroke-dasharray:none;stroke-opacity:1" />
          </g>
        </g>
        <g
           aria-label="AS"
           transform="scale(1.1356497,0.88055322)"
           style="font-style:normal;font-variant:normal;font-weight:normal;font-stretch:normal;font-size:52.23159027px;line-height:81.61186218px;font-family:TakaoGothic;-inkscape-font-specification:'TakaoGothic, Normal';font-variant-ligatures:normal;font-variant-caps:normal;font-variant-numeric:normal;font-feature-settings:normal;text-align:start;letter-spacing:0px;word-spacing:0px;writing-mode:lr-tb;text-anchor:start;fill:#999999;fill-opacity:1;stroke:none;stroke-width:3.26447439px;stroke-linecap:butt;stroke-linejoin:miter;stroke-opacity:1"
           id="text906">
          <path
             d="m 85.717407,168.51105 h 5.202756 l 9.359857,36.57231 H 95.740363 L 92.960459,193.14763 H 83.67711 l -2.779904,11.93573 h -4.539659 z m 2.601378,3.69804 -3.825556,17.29151 h 7.625608 z"
             style="fill:#999999;stroke-width:3.26447439px"
             id="path908" />
          <path
             d="m 108.16067,194.57584 q 0.30604,7.72762 6.68197,7.72762 2.29533,0 3.82556,-1.14767 2.14231,-1.65774 2.14231,-4.64167 0,-3.21347 -2.67789,-5.66183 -1.83627,-1.63223 -6.29942,-4.20811 -7.06452,-4.1571 -7.06452,-9.92094 0,-3.64703 2.29533,-6.1719 2.7799,-3.08594 7.42158,-3.08594 8.64575,0 9.81892,10.40551 h -4.28462 q -0.17852,-2.39735 -0.99464,-3.82556 -1.63224,-2.88192 -4.53966,-2.88192 -3.00944,0 -4.48866,2.0403 -1.04565,1.45371 -1.04565,3.18796 0,4.1316 6.73298,8.05917 4.15711,2.42286 6.37593,4.64168 2.98393,2.90742 2.98393,7.37057 0,4.20811 -2.67789,6.78399 -2.85641,2.88191 -7.39607,2.88191 -5.68733,0 -8.84979,-4.1826 -2.19332,-2.90743 -2.34634,-7.37057 z"
             style="fill:#999999;stroke-width:3.26447439px"
             id="path910" />
        </g>
      </g>
    </g>
  </g>
</svg>
